<svg version="1.1" id="Layer_1" xmlns="http://www.w3.org/2000/svg" xmlns:xlink="http://www.w3.org/1999/xlink" x="0px" y="0px"
	 width="100%" viewBox="0 0 403 403" enable-background="new 0 0 403 403" xml:space="preserve">
<path fill="none" opacity="1.000000" stroke="none" 
	d="
M231.000000,404.000000 
	C154.000000,404.000000 77.500000,404.000000 1.000000,404.000000 
	C1.000000,269.666656 1.000000,135.333328 1.000000,1.000000 
	C135.333328,1.000000 269.666656,1.000000 404.000000,1.000000 
	C404.000000,135.333328 404.000000,269.666656 404.000000,404.000000 
	C346.500000,404.000000 289.000000,404.000000 231.000000,404.000000 
M336.193726,272.000000 
	C331.602936,272.333374 327.016022,272.738556 322.420593,272.985352 
	C312.389496,273.524017 304.990356,282.618622 306.561646,293.000000 
	C317.309723,293.000000 328.162567,292.362335 338.910583,293.151855 
	C354.420288,294.291107 365.897095,282.856567 370.938995,270.399841 
	C374.890991,260.635956 376.007812,250.541504 375.345245,239.842773 
	C374.397980,224.546356 375.148285,209.149887 374.897705,193.800659 
	C374.851715,190.981445 373.825653,188.040100 372.686279,185.399185 
	C365.078308,167.764755 343.788879,153.987808 321.921906,157.645309 
	C297.827026,161.675415 284.299133,180.657150 283.138306,201.817169 
	C282.509094,213.286728 287.355774,223.421951 294.159332,232.447449 
	C302.096893,242.977310 318.910004,250.751923 333.783600,248.025131 
	C340.582184,246.778748 347.277924,244.971329 354.121155,243.395111 
	C353.790131,246.875107 353.837738,251.220871 352.890503,255.337723 
	C350.828491,264.299744 347.836334,270.559967 336.193726,272.000000 
M209.998169,175.538818 
	C209.666656,186.613937 208.950623,197.694336 209.102081,208.762848 
	C209.286789,222.260620 191.765854,230.985489 179.831985,227.339127 
	C161.889252,221.856781 158.821579,207.617401 160.216644,192.040115 
	C161.056732,182.659775 161.342102,173.483200 159.846588,164.296646 
	C153.380341,164.296646 147.307022,164.296646 140.999939,164.296646 
	C140.999939,172.565308 140.997864,180.539307 141.000519,188.513321 
	C141.003082,196.185059 140.145615,203.974991 141.174896,211.506790 
	C144.519287,235.979507 172.549469,253.698044 194.933868,246.588760 
	C200.054062,244.962585 205.382416,243.991791 211.525024,242.498077 
	C210.202972,249.658859 209.564438,255.802094 207.863220,261.635437 
	C205.849792,268.539398 197.954132,274.107880 189.504562,272.195312 
	C178.318634,269.663300 168.173477,274.377441 164.300369,284.383759 
	C163.275955,287.030365 162.802902,289.890381 161.985260,293.000122 
	C173.293213,293.000122 184.271698,293.136353 195.245499,292.967621 
	C211.007614,292.725250 222.631668,283.534271 228.145233,269.283203 
	C232.521957,257.970551 230.984680,246.223892 231.694824,234.754700 
	C232.835373,216.334137 232.081604,197.790863 231.952942,179.300674 
	C231.917938,174.271469 231.254349,169.246643 230.862839,163.999939 
	C227.122437,163.999939 223.813339,163.999954 220.504242,163.999954 
	C209.993011,163.999954 209.993011,163.999939 209.998169,175.538818 
M67.690750,160.048950 
	C64.863396,160.909134 62.036041,161.769318 58.847023,162.739532 
	C58.847023,146.289062 58.847023,130.355469 58.847023,114.214363 
	C52.529465,114.214363 46.467499,114.214363 40.468586,114.214363 
	C40.271328,114.711662 40.058361,115.000870 40.054844,115.292610 
	C39.696236,145.011246 39.174896,174.729614 39.099316,204.449112 
	C39.069904,216.012482 42.791176,226.598038 51.336479,234.756531 
	C64.244408,247.080231 79.677460,250.677444 96.904503,246.553955 
	C106.161781,244.338135 113.750519,239.129288 119.947723,232.064377 
	C128.248260,222.601639 130.634125,211.280304 130.074753,198.934189 
	C129.547012,187.286453 125.266335,177.232101 116.873238,169.577423 
	C102.901001,156.834457 86.669479,152.936523 67.690750,160.048950 
M272.991302,171.469788 
	C272.991302,169.052185 272.991302,166.634583 272.991302,164.245422 
	C265.280060,164.245422 258.353760,164.245422 250.999924,164.245422 
	C250.999924,166.273392 250.999924,168.062210 250.999924,169.851028 
	C250.999924,197.477997 251.106354,225.105743 250.904907,252.731247 
	C250.867233,257.897064 250.059097,263.181610 248.686356,268.157501 
	C248.060211,270.427246 245.533585,272.741272 243.284134,273.888428 
	C236.409378,277.394318 230.788559,285.654480 231.353912,292.957245 
	C235.667099,293.301086 240.088394,294.192169 244.423477,293.881256 
	C252.216171,293.322418 261.076355,293.259949 265.429993,285.657379 
	C268.857208,279.672607 271.511993,272.371704 271.723145,265.568909 
	C272.686462,234.535202 272.665802,203.470963 272.991302,171.469788 
z"/>
<path fill="#36B3D4" opacity="1.000000" stroke="none" 
	d="
M336.645081,271.999695 
	C347.836334,270.559967 350.828491,264.299744 352.890503,255.337723 
	C353.837738,251.220871 353.790131,246.875107 354.121155,243.395111 
	C347.277924,244.971329 340.582184,246.778748 333.783600,248.025131 
	C318.910004,250.751923 302.096893,242.977310 294.159332,232.447449 
	C287.355774,223.421951 282.509094,213.286728 283.138306,201.817169 
	C284.299133,180.657150 297.827026,161.675415 321.921906,157.645309 
	C343.788879,153.987808 365.078308,167.764755 372.686279,185.399185 
	C373.825653,188.040100 374.851715,190.981445 374.897705,193.800659 
	C375.148285,209.149887 374.397980,224.546356 375.345245,239.842773 
	C376.007812,250.541504 374.890991,260.635956 370.938995,270.399841 
	C365.897095,282.856567 354.420288,294.291107 338.910583,293.151855 
	C328.162567,292.362335 317.309723,293.000000 306.561646,293.000000 
	C304.990356,282.618622 312.389496,273.524017 322.420593,272.985352 
	C327.016022,272.738556 331.602936,272.333374 336.645081,271.999695 
M346.041321,184.525131 
	C340.445007,179.832108 334.336182,177.561905 326.780365,178.907959 
	C313.871948,181.207550 307.013794,190.342178 306.096436,202.525314 
	C305.076050,216.076813 317.263275,230.809708 335.697266,227.025513 
	C346.176880,224.874207 352.047821,218.188553 354.374176,208.127579 
	C356.506134,198.907318 353.461121,191.261734 346.041321,184.525131 
z"/>
<path fill="#D5D7D7" opacity="1.000000" stroke="none" 
	d="
M209.997086,175.047333 
	C209.993011,163.999939 209.993011,163.999954 220.504242,163.999954 
	C223.813339,163.999954 227.122437,163.999939 230.862839,163.999939 
	C231.254349,169.246643 231.917938,174.271469 231.952942,179.300674 
	C232.081604,197.790863 232.835373,216.334137 231.694824,234.754700 
	C230.984680,246.223892 232.521957,257.970551 228.145233,269.283203 
	C222.631668,283.534271 211.007614,292.725250 195.245499,292.967621 
	C184.271698,293.136353 173.293213,293.000122 161.985260,293.000122 
	C162.802902,289.890381 163.275955,287.030365 164.300369,284.383759 
	C168.173477,274.377441 178.318634,269.663300 189.504562,272.195312 
	C197.954132,274.107880 205.849792,268.539398 207.863220,261.635437 
	C209.564438,255.802094 210.202972,249.658859 211.525024,242.498077 
	C205.382416,243.991791 200.054062,244.962585 194.933868,246.588760 
	C172.549469,253.698044 144.519287,235.979507 141.174896,211.506790 
	C140.145615,203.974991 141.003082,196.185059 141.000519,188.513321 
	C140.997864,180.539307 140.999939,172.565308 140.999939,164.296646 
	C147.307022,164.296646 153.380341,164.296646 159.846588,164.296646 
	C161.342102,173.483200 161.056732,182.659775 160.216644,192.040115 
	C158.821579,207.617401 161.889252,221.856781 179.831985,227.339127 
	C191.765854,230.985489 209.286789,222.260620 209.102081,208.762848 
	C208.950623,197.694336 209.666656,186.613937 209.997086,175.047333 
z"/>
<path fill="#D5D7D7" opacity="1.000000" stroke="none" 
	d="
M68.106438,160.023895 
	C86.669479,152.936523 102.901001,156.834457 116.873238,169.577423 
	C125.266335,177.232101 129.547012,187.286453 130.074753,198.934189 
	C130.634125,211.280304 128.248260,222.601639 119.947723,232.064377 
	C113.750519,239.129288 106.161781,244.338135 96.904503,246.553955 
	C79.677460,250.677444 64.244408,247.080231 51.336479,234.756531 
	C42.791176,226.598038 39.069904,216.012482 39.099316,204.449112 
	C39.174896,174.729614 39.696236,145.011246 40.054844,115.292610 
	C40.058361,115.000870 40.271328,114.711662 40.468586,114.214363 
	C46.467499,114.214363 52.529465,114.214363 58.847023,114.214363 
	C58.847023,130.355469 58.847023,146.289062 58.847023,162.739532 
	C62.036041,161.769318 64.863396,160.909134 68.106438,160.023895 
M79.574791,178.865402 
	C67.324951,181.344391 59.032513,193.312347 60.726238,207.078766 
	C62.395245,220.644241 80.503052,231.109482 91.658356,227.059418 
	C104.889198,222.255783 113.650864,207.319611 108.834755,195.352127 
	C104.938835,185.671204 95.445312,175.444839 79.574791,178.865402 
z"/>
<path fill="#36B3D4" opacity="1.000000" stroke="none" 
	d="
M272.995056,171.943756 
	C272.665802,203.470963 272.686462,234.535202 271.723145,265.568909 
	C271.511993,272.371704 268.857208,279.672607 265.429993,285.657379 
	C261.076355,293.259949 252.216171,293.322418 244.423477,293.881256 
	C240.088394,294.192169 235.667099,293.301086 231.353912,292.957245 
	C230.788559,285.654480 236.409378,277.394318 243.284134,273.888428 
	C245.533585,272.741272 248.060211,270.427246 248.686356,268.157501 
	C250.059097,263.181610 250.867233,257.897064 250.904907,252.731247 
	C251.106354,225.105743 250.999924,197.477997 250.999924,169.851028 
	C250.999924,168.062210 250.999924,166.273392 250.999924,164.245422 
	C258.353760,164.245422 265.280060,164.245422 272.991302,164.245422 
	C272.991302,166.634583 272.991302,169.052185 272.995056,171.943756 
z"/>
<path fill="none" opacity="1.000000" stroke="none" 
	d="
M346.351257,184.731415 
	C353.461121,191.261734 356.506134,198.907318 354.374176,208.127579 
	C352.047821,218.188553 346.176880,224.874207 335.697266,227.025513 
	C317.263275,230.809708 305.076050,216.076813 306.096436,202.525314 
	C307.013794,190.342178 313.871948,181.207550 326.780365,178.907959 
	C334.336182,177.561905 340.445007,179.832108 346.351257,184.731415 
z"/>
<path fill="none" opacity="1.000000" stroke="none" 
	d="
M79.889053,178.567841 
	C95.445312,175.444839 104.938835,185.671204 108.834755,195.352127 
	C113.650864,207.319611 104.889198,222.255783 91.658356,227.059418 
	C80.503052,231.109482 62.395245,220.644241 60.726238,207.078766 
	C59.032513,193.312347 67.324951,181.344391 79.889053,178.567841 
z"/>
</svg>
